<?xml version="1.0" encoding="UTF-8" standalone="no"?>
<!-- Created with Inkscape (http://www.inkscape.org/) -->

<svg
   version="1.1"
   id="svg1"
   width="512"
   height="512"
   viewBox="0 0 512 512"
   sodipodi:docname="calendar.svg"
   inkscape:export-filename="maps.svg"
   inkscape:export-xdpi="96"
   inkscape:export-ydpi="96"
   xml:space="preserve"
   inkscape:version="1.3.2 (091e20e, 2023-11-25, custom)"
   xmlns:inkscape="http://www.inkscape.org/namespaces/inkscape"
   xmlns:sodipodi="http://sodipodi.sourceforge.net/DTD/sodipodi-0.dtd"
   xmlns="http://www.w3.org/2000/svg"
   xmlns:svg="http://www.w3.org/2000/svg"><defs
     id="defs1" /><sodipodi:namedview
     id="namedview1"
     pagecolor="#505050"
     bordercolor="#ffffff"
     borderopacity="1"
     inkscape:showpageshadow="0"
     inkscape:pageopacity="0"
     inkscape:pagecheckerboard="1"
     inkscape:deskcolor="#505050"
     showgrid="false"
     inkscape:zoom="1.4296875"
     inkscape:cx="255.65027"
     inkscape:cy="479.47541"
     inkscape:window-width="1920"
     inkscape:window-height="991"
     inkscape:window-x="-9"
     inkscape:window-y="-9"
     inkscape:window-maximized="1"
     inkscape:current-layer="g1" /><g
     inkscape:groupmode="layer"
     inkscape:label="Image"
     id="g1"><path
       style="fill:#ebf2f1;stroke-width:1.13341"
       d="M 16.462801,462.757 C 7.3208296,458.57264 0,445.78106 0,433.99176 0,430.75158 7.4381537,346.91582 16.52923,247.69009 34.726297,49.075872 33.382151,59.742284 41.533333,49.27131 47.07011,42.158806 54.021976,38.52456 64.042252,37.504271 72.5,36.643091 72.5,36.643091 74.937485,30.089848 77.89401,22.141151 86.966915,10.150554 93.04519,6.158999 c 16.15749,-10.6104992 34.10409,-7.2936763 44.74097,8.268857 3.74095,5.473272 6.68243,12.537063 7.67126,18.42206 0.38582,2.296212 1.00324,4.17276 1.37204,4.170115 0.36879,-0.0026 1.48172,-2.539054 2.47316,-5.636455 3.02871,-9.462102 11.74251,-20.588605 20.45753,-26.1218537 7.13166,-4.5279684 8.23266,-4.84781348 16.68764,-4.84781348 7.88478,0 9.86476,0.48196933 15.35269,3.73716598 7.73281,4.5867606 14.27642,13.4980432 17.14577,23.3496352 1.12956,3.878228 2.05375,7.607716 2.05375,8.287729 0,3.020876 1.65598,0.739591 3.38643,-4.66516 4.94293,-15.438409 20.42422,-29.4422916 34.187,-30.9244839 16.4132,-1.767633 31.34814,10.5667979 36.06386,29.7843039 0.95038,3.872963 1.98327,7.039577 2.29533,7.036932 0.31206,-0.0026 1.41627,-2.656182 2.45381,-5.896752 3.00716,-9.392362 11.60435,-20.293803 20.4167,-25.8888412 7.08721,-4.49975254 8.19599,-4.82052898 16.6623,-4.82052898 8.23192,0 9.68698,0.39007271 15.74958,4.22213948 7.81719,4.9411149 13.91771,13.1203837 16.332,21.8971567 0.90709,3.297555 1.97929,7.126287 2.38267,8.508266 0.6103,2.090949 1.28623,1.180324 4.02691,-5.425097 6.43164,-15.501187 19.91886,-27.6429687 32.59698,-29.34521918 16.6185,-2.23130962 32.14657,10.26447018 36.90502,29.69826318 1.63969,6.696565 1.63969,6.696565 9.70064,7.560146 4.43353,0.47498 9.69892,1.742514 11.70086,2.816769 3.75687,2.01594 8.6328,7.274568 10.21295,11.014498 2.1835,5.167992 36.23317,316.966999 35.62169,326.194379 -0.5574,8.41148 -2.29836,13.23053 -6.87256,19.02347 -6.55454,8.3009 -7.07251,8.44301 -32.39075,8.88693 -23.06859,0.40447 -23.06859,0.40447 -24.6718,16.23282 -1.02801,10.14953 -2.3637,17.74332 -3.7229,21.16578 -2.86128,7.20474 -8.65137,14.40612 -14.61381,18.17581 C 424.5,464.15247 424.5,464.15247 222.5,464.37867 49.005971,464.57292 19.930276,464.34409 16.462801,462.757 Z M 422.96598,440.70663 c 6.86543,-4.44897 5.87856,3.64128 20.97825,-171.97707 7.64638,-88.93188 14.69009,-171.116036 15.6527,-182.631478 2.44891,-29.295568 6.3104,-26.496998 -37.20289,-26.962336 -34.55271,-0.369497 -34.55271,-0.369497 -33.86306,2.569188 1.71799,7.320617 9.68105,13.857747 16.88049,13.857747 3.81099,0 7.59624,5.279371 7.55673,10.539521 -0.0863,11.49035 -10.0263,14.367958 -23.02461,6.665555 -9.19514,-5.448759 -15.3872,-14.878201 -18.46833,-28.124126 -1.19523,-5.138376 -1.19523,-5.138376 -29.83525,-5.479225 C 325.88801,58.976934 313,59.324998 313,59.93787 c 0,0.612883 1.01613,3.078538 2.25807,5.479236 2.66555,5.152564 9.80118,10.145575 14.49927,10.145575 8.574,0 11.55819,15.05158 3.98202,20.084342 -6.13754,4.077114 -19.4164,-0.94347 -27.59264,-10.432433 C 301.79433,80.163414 296,66.831941 296,61.869258 c 0,-3.006301 0,-3.006301 -29,-3.006301 -15.95,0 -29,0.492572 -29,1.094624 0,0.602042 1.01613,3.058827 2.25807,5.459525 2.66555,5.152564 9.80118,10.145575 14.49927,10.145575 6.01438,0 9.9395,8.240062 7.62148,15.99988 -1.18357,3.962121 -6.22175,6.159462 -11.99731,5.232484 -13.78119,-2.211874 -26.52286,-16.833461 -28.90931,-33.174611 -0.69478,-4.757477 -0.69478,-4.757477 -29.58349,-4.757477 -15.88879,0 -28.88871,0.492572 -28.88871,1.094624 0,0.602042 1.01613,3.058827 2.25807,5.459525 2.66555,5.152564 9.80118,10.145575 14.49927,10.145575 8.574,0 11.55819,15.05158 3.98202,20.084342 -6.8187,4.529607 -22.20759,-2.332273 -29.67694,-13.232875 C 150.39172,77.057232 146,65.251892 146,60.74166 c 0,-1.605354 -4.21949,-1.878703 -29,-1.878703 -15.95,0 -29,0.492572 -29,1.094624 0,0.602042 1.016132,3.058827 2.258071,5.459525 2.643192,5.10934 9.790339,10.145575 14.398059,10.145575 6.94984,0 10.86832,9.632208 7.00207,17.212143 C 107.02851,101.8515 88.225662,95.786781 78.92794,82.21791 75.305761,76.931771 71,65.170866 71,60.56324 71,58.834069 70.069312,58.614538 65.16215,59.186125 57.842331,60.038766 53.512083,62.864342 51.351324,68.198008 50.101906,71.282094 45.467516,118.14996 33.347917,250.2675 24.371435,348.12149 17.020957,430.08884 17.01352,432.41716 c -0.0089,2.79824 0.818563,5.30221 2.441025,7.38641 2.454546,3.1531 2.454546,3.1531 201.250005,3.1511 187.27168,-9e-4 198.99637,-0.1322 202.26143,-2.24804 z M 41.923077,418.6482 C 40.222627,416.46379 39,413.5248 39,411.62161 c 0,-1.7994 1.359596,-17.8611 3.021325,-35.69268 2.639095,-28.31944 3.293702,-32.7935 5.174314,-35.36504 2.152989,-2.94396 2.152989,-2.94396 38.52413,-2.94396 36.371141,0 36.371141,0 38.825681,3.1531 1.56606,2.01173 2.45455,4.61636 2.45455,7.19553 0,6.64047 -4.97409,60.55854 -6.06619,65.75611 -1.7991,8.56242 -2.35364,8.6785 -41.461073,8.6785 -34.626583,0 -34.626583,0 -37.54966,-3.75497 z m 64.956003,-33.17713 c 0.69772,-8.30168 1.52264,-17.56121 1.83315,-20.57674 0.56458,-5.48277 0.56458,-5.48277 -23.823708,-5.13838 -24.388285,0.34438 -24.388285,0.34438 -26.083907,18.32871 -0.932592,9.89137 -1.720146,18.99593 -1.750119,20.23236 -0.05045,2.08124 1.748803,2.24803 24.250759,2.24803 24.305255,0 24.305255,0 25.573825,-15.09398 z M 140.5,420.9198 c -5.38591,-3.78424 -5.46719,-5.61425 -1.97021,-44.35498 3.04023,-33.68064 2.94644,-33.07959 5.67088,-36.34015 2.10361,-2.51756 3.39328,-2.60474 38.53335,-2.60474 36.35689,0 36.35689,0 38.81143,3.1531 1.35,1.7342 2.45455,4.09627 2.45455,5.24904 0,6.28439 -6.19962,68.03697 -7.03084,70.03215 -2.61046,6.26584 -3.15266,6.3515 -39.94167,6.30988 -23.05343,-0.0263 -35.19212,-0.50604 -36.52749,-1.4443 z m 61.92739,-24.52968 c 0.28491,-2.2962 0.99259,-9.66658 1.57261,-16.37858 0.58002,-6.71199 1.2877,-14.08236 1.57261,-16.37857 0.51802,-4.17493 0.51802,-4.17493 -24.0273,-4.17493 -19.35587,0 -24.54531,0.34982 -24.54531,1.65457 0,0.91 -0.6714,8.56939 -1.49201,17.02087 -2.45769,25.31185 -5.3399,22.43157 22.4467,22.43157 23.95468,0 23.95468,0 24.4727,-4.17493 z m 34.88091,24.71611 c -1.20544,-0.62374 -2.92965,-2.58084 -3.83159,-4.34912 -1.53656,-3.01249 -1.44572,-5.28446 1.4417,-36.05732 C 236.61328,362.63656 238,346.97298 238,345.89183 c 0,-1.08114 1.10455,-3.3846 2.45455,-5.1188 2.45454,-3.1531 2.45454,-3.1531 38.27749,-3.1531 39.06026,0 39.07644,0.002 40.97969,7.36633 1.07315,4.15188 -4.19405,65.78678 -6.06379,70.95632 -2.23779,6.18719 -3.75224,6.42711 -40.14794,6.36021 -18.7,-0.0344 -34.98627,-0.5728 -36.1917,-1.19656 z M 299,398.91048 c 0,-0.91001 0.6714,-8.56938 1.49201,-17.02087 2.45755,-25.31045 5.32989,-22.43157 -22.38072,-22.43157 -27.40551,0 -24.07641,-2.7037 -26.09874,21.19581 -0.59785,7.06527 -1.331,14.43561 -1.62923,16.37856 -0.54223,3.53264 -0.54223,3.53264 24.03722,3.53264 19.38373,0 24.57946,-0.34975 24.57946,-1.65457 z M 51.174314,312.80869 c -2.85595,-3.90518 -2.800443,-7.28842 0.740791,-45.15172 2.770686,-29.62452 2.979065,-30.89339 5.537722,-33.72062 2.6587,-2.93775 2.6587,-2.93775 38.648391,-2.93775 35.989692,0 35.989692,0 38.444232,3.15311 1.35,1.7342 2.45455,4.38529 2.45455,5.89132 0,6.81325 -6.15369,68.56902 -7.04602,70.71088 -0.5499,1.31992 -1.85992,2.99116 -2.91116,3.71389 -1.20093,0.82562 -15.2514,1.31402 -37.802765,1.31402 -35.891427,0 -35.891427,0 -38.065741,-2.97313 z m 64.249716,-21.7553 c 0.25418,-1.58969 0.95104,-8.67101 1.54857,-15.73628 0.59754,-7.06527 1.3377,-15.0137 1.64481,-17.66318 0.55839,-4.81723 0.55839,-4.81723 -23.871526,-4.81723 -24.429911,0 -24.429911,0 -26.092984,18.30547 -0.91469,10.06802 -1.660784,19.31709 -1.657986,20.55351 0.0047,2.07832 1.81564,2.24805 23.986034,2.24805 23.980952,0 23.980952,0 24.443082,-2.89034 z m 32.89905,21.83809 c -1.11405,-1.58968 -2.32562,-3.57459 -2.69237,-4.41093 -0.62558,-1.42655 4.7999,-65.26022 5.95486,-70.06202 0.29295,-1.218 1.69173,-3.38575 3.1084,-4.81724 2.47582,-2.50172 3.93913,-2.60269 37.71838,-2.60269 37.97256,0 38.52464,0.095 40.56025,6.9727 0.53058,1.79269 -0.2382,14.80506 -2.06048,34.87556 -3.41823,37.6482 -3.31774,36.98515 -6.11279,40.33022 -2.10311,2.51697 -3.39428,2.60474 -38.31358,2.60474 -36.13712,0 -36.13712,0 -38.16267,-2.89034 z m 63.7197,-20.5535 c 0.0235,-0.88316 0.84197,-10.13225 1.81875,-20.55351 1.77596,-18.94777 1.77596,-18.94777 -22.54278,-18.94777 -13.37531,0 -24.31875,0.33924 -24.31875,0.75385 0,1.52471 -3.00308,33.40209 -3.46876,36.82055 -0.48124,3.53263 -0.48124,3.53263 23.99376,3.53263 18.89052,0 24.48476,-0.36639 24.51778,-1.60575 z m 32.8803,19.68887 C 243.31538,309.96163 242,307.08869 242,305.64257 c 0,-6.74276 6.12922,-67.41547 7.02841,-69.57379 0.55959,-1.34316 1.87753,-3.03343 2.92877,-3.75614 2.81886,-1.93796 70.50566,-1.77151 73.35856,0.18038 5.58789,3.82312 5.60677,4.33162 1.70921,46.03557 -2.81145,30.08246 -3.05609,31.60022 -5.53892,34.36289 -2.58873,2.88052 -2.71827,2.89034 -38.11872,2.89034 -35.52116,0 -35.52116,0 -38.44423,-3.75497 z m 65.41355,-37.67318 c 0.94047,-10.77455 1.69946,-20.02364 1.68666,-20.55353 -0.0128,-0.52989 -10.81472,-0.96344 -24.00424,-0.96344 -23.98095,0 -23.98095,0 -24.46585,2.89034 -0.4185,2.49453 -3.5532,35.59623 -3.5532,37.52095 0,0.38266 10.941,0.69574 24.31334,0.69574 24.31334,0 24.31334,0 26.02329,-19.59006 z m 31.11792,38.27508 c -3.17159,-4.07423 -3.14788,-6.38999 0.46056,-44.97178 2.77068,-29.62452 2.97906,-30.89339 5.53772,-33.72062 2.6587,-2.93775 2.6587,-2.93775 38.17986,-2.93775 35.52116,0 35.52116,0 38.44423,3.75497 1.6077,2.06522 2.92308,4.71633 2.92308,5.89133 0,6.37996 -6.20098,68.08068 -7.04602,70.10901 -0.5499,1.31992 -1.85992,2.99116 -2.91116,3.71389 -1.20013,0.82509 -15.16217,1.31402 -37.52253,1.31402 -35.6112,0 -35.6112,0 -38.06574,-3.15307 z m 63.96948,-21.57536 c 0.25418,-1.58969 0.95104,-8.67101 1.54857,-15.73628 0.59754,-7.06527 1.3377,-15.0137 1.64481,-17.66318 0.55839,-4.81723 0.55839,-4.81723 -23.87153,-4.81723 -24.42991,0 -24.42991,0 -26.09298,18.30547 -0.91469,10.06802 -1.66078,19.31709 -1.65799,20.55351 0.005,2.07832 1.81564,2.24805 23.98604,2.24805 23.98095,0 23.98095,0 24.44308,-2.89034 z M 159.28485,208.54875 c -1.9985,-1.11623 -3.45762,-3.03676 -3.8559,-5.07522 -0.99249,-5.07984 5.30433,-70.03214 7.13776,-73.62666 0.84584,-1.6583 2.72544,-3.59508 4.17688,-4.30398 1.63757,-0.79978 15.69153,-1.14363 37.03541,-0.90612 44.65731,0.49699 41.02756,-3.88285 36.70848,44.29424 -3.04133,33.92435 -3.62652,37.02239 -7.47622,39.57972 -4.13641,2.74776 -68.81516,2.78113 -73.72641,0.038 z m 64.05178,-39.53183 c 0.94047,-10.77454 1.69946,-20.31265 1.68666,-21.19581 -0.018,-1.23907 -5.49331,-1.60574 -23.97798,-1.60574 -23.95468,0 -23.95468,0 -24.50114,4.17494 C 176.01794,154.41075 173,186.31114 173,187.85314 c 0,0.41462 10.941,0.75385 24.31334,0.75385 24.31334,0 24.31334,0 26.02329,-19.59007 z M 257,209.55787 c -3.52241,-1.72041 -5,-4.71843 -5,-10.14502 0,-7.84862 4.82213,-60.59788 6.07589,-66.46414 1.77842,-8.32111 3.07341,-8.59013 40.64199,-8.4434 18.03017,0.0705 33.86655,0.51774 35.19197,0.99403 1.32542,0.47627 3.31334,2.42048 4.4176,4.32046 2.00775,3.45448 2.00775,3.45448 -1.18589,38.50725 -3.00168,32.94586 -3.34364,35.2458 -5.68923,38.26426 -2.49558,3.21149 -2.49558,3.21149 -37.72395,3.45534 C 274.35277,210.18077 257.825,209.96082 257,209.55787 Z m 61.46444,-25.12582 C 319.04868,180.03771 322,148.9534 322,147.19432 c 0,-0.56353 -10.9125,-0.86984 -24.25,-0.68063 -24.25,0.34398 -24.25,0.34398 -25.91498,17.0437 -2.81269,28.21111 -5.60443,25.0496 22.11967,25.0496 23.95468,0 23.95468,0 24.50975,-4.17494 z m 34.84386,24.7161 c -1.20544,-0.62373 -2.90388,-2.53029 -3.77431,-4.2368 -1.46011,-2.8626 -1.34619,-5.72675 1.47172,-37.0012 1.67988,-18.64413 3.49182,-35.22911 4.02654,-36.85551 2.01201,-6.11969 5.37669,-6.67739 40.28641,-6.67739 21.12117,0 33.48866,0.49518 35.5625,1.42388 6.27542,2.81021 6.39823,4.56169 2.97385,42.41101 -3.18972,35.25564 -3.9182,38.78142 -8.47241,41.0057 -3.1645,1.54555 -69.07587,1.48183 -72.0743,-0.0697 z M 415,187.69535 c 0,-1.592 3.00076,-34.26365 3.48532,-37.94734 0.46468,-3.53264 0.46468,-3.53264 -24.01032,-3.53264 -19.33313,0 -24.475,0.34856 -24.475,1.6591 0,1.49742 -2.31334,26.17872 -3.42649,36.55758 -0.44777,4.17494 -0.44777,4.17494 23.98936,4.17494 13.44042,0 24.43713,-0.41025 24.43713,-0.91164 z m 77.68555,193.37687 c 1.27295,-1.53622 2.32443,-4.28205 2.33664,-6.10182 0.0344,-5.13391 -22.40744,-212.05537 -22.99861,-212.05479 -0.28797,2.9e-4 -4.9465,48.70245 -10.3523,108.22708 -5.4058,59.52461 -10.04862,109.23818 -10.31739,110.4746 -0.45351,2.0863 0.93246,2.24803 19.26427,2.24803 18.9045,0 19.85235,-0.11997 22.06739,-2.7931 z M 129,36.213035 c 0,-0.446513 -0.90709,-2.697238 -2.01576,-5.001619 C 123.08762,23.112228 112.51567,19.535917 104.33467,23.54944 99.83006,25.759366 92,33.592989 92,35.889728 c 0,0.624313 8.325,1.135119 18.5,1.135119 10.175,0 18.5,-0.365312 18.5,-0.811812 z m 73.30654,-3.203869 c -2.39545,-5.324758 -8.20381,-10.169323 -13.23091,-11.0355 -6.45821,-1.112755 -12.62525,1.826513 -18.42856,8.783208 -5.14707,6.170037 -5.14707,6.170037 14.15947,6.219004 19.30653,0.04895 19.30653,0.04895 17.5,-3.966712 z m 75.32152,0.480015 c -1.88648,-4.686264 -4.41543,-7.505911 -8.88254,-9.903581 -7.877,-4.227882 -16.01589,-1.730078 -23.1695,7.110654 C 240.5,36.96943 240.5,36.96943 259.77568,36.99714 c 19.27568,0.02775 19.27568,0.02775 17.85238,-3.507959 z M 353,35.617407 c 0,-3.030498 -4.22336,-8.77902 -8.3227,-11.328247 -8.21688,-5.109757 -16.58157,-2.886085 -24.10128,6.407094 C 315.5,36.96943 315.5,36.96943 334.25,36.99714 347.18749,37.016278 353,36.588547 353,35.617407 Z m 75,0.16755 c 0,-2.387741 -6.49899,-10.720377 -9.70226,-12.439691 -7.75516,-4.162498 -19.55259,0.312901 -25.05489,9.50465 -2.49917,4.174931 -2.49917,4.174931 16.12899,4.174931 11.3044,0 18.62816,-0.487465 18.62816,-1.23989 z"
       id="path1" /></g></svg>
