<?xml version="1.0" encoding="UTF-8" standalone="no"?>
<!-- Created with Inkscape (http://www.inkscape.org/) -->

<svg
   version="1.1"
   id="svg1"
   width="512"
   height="512"
   viewBox="0 0 512 512"
   sodipodi:docname="form.png"
   xmlns:inkscape="http://www.inkscape.org/namespaces/inkscape"
   xmlns:sodipodi="http://sodipodi.sourceforge.net/DTD/sodipodi-0.dtd"
   xmlns="http://www.w3.org/2000/svg"
   xmlns:svg="http://www.w3.org/2000/svg">
  <defs
     id="defs1" />
  <sodipodi:namedview
     id="namedview1"
     pagecolor="#505050"
     bordercolor="#fff"
     borderopacity="1"
     inkscape:showpageshadow="0"
     inkscape:pageopacity="0"
     inkscape:pagecheckerboard="1"
     inkscape:deskcolor="#505050"
     showgrid="false" />
  <g
     inkscape:groupmode="layer"
     inkscape:label="Image"
     id="g1">
    <path
       style="fill:#ebf2f1"
       d="M 40,484.69345 V 465.38691 L 33.964011,450.44345 27.928022,435.5 25.445413,427 22.962803,418.5 15.481401,373.72227 8,328.94453 8.013137,320.72227 8.026274,312.5 l 1.8668542,-9 1.8668548,-9 2.612606,-6.40419 2.612605,-6.40419 4.716186,-7.59581 L 26.417566,266.5 41.185088,251.43522 55.952611,236.37043 56.226305,137.38261 56.5,38.394783 l 3.73472,-7.555947 3.73472,-7.555947 4.585671,-4.226924 4.585671,-4.226923 6.679609,-3.164521 L 86.5,8.5 H 216 345.5 l 6.67961,3.164521 6.67961,3.164521 4.58567,4.226923 4.58567,4.226924 3.73472,7.553862 3.73472,7.553862 0.30178,40.804694 L 376.10356,120 h 14.14856 14.14856 L 425.5186,99.027879 446.63652,78.055758 452.56826,75.277879 458.5,72.5 h 9.02103 9.02102 l 6.60156,3.249933 6.60155,3.249932 4.21701,4.574921 4.21702,4.574921 2.6604,5.675147 L 503.5,99.5 l -0.0233,9 -0.0233,9 -2.70524,5.82389 -2.70524,5.8239 -12.56283,12.79478 -12.56282,12.79478 8.90628,6.63133 8.90629,6.63132 h 6.63504 6.63505 v 40 40 h -7.19168 -7.19168 l -21.05832,6.94746 -21.05832,6.94746 -6.5,1.04499 -6.5,1.04498 -6.56634,0.008 -6.56634,0.008 -5.93366,-1.05425 -5.93366,-1.05425 -6.82552,-2.10882 -6.82551,-2.10882 -8.17449,-4.71943 -8.17448,-4.71942 -1.72129,1.5115 -1.72129,1.5115 -0.27871,79.12099 -0.27871,79.121 -3.16452,6.67961 -3.16452,6.67961 -4.22693,4.58567 -4.22692,4.58567 -7.55585,3.73472 L 345.6054,439.5 253.3027,439.7751 161,440.05019 v 1.4863 1.48631 l -4.5,11.19519 -4.5,11.19519 V 484.70659 504 H 96 40 Z M 136,480 v -8 H 96 56 v 8 8 h 40 40 z m 6.77268,-34.75 4.01205,-10.75 2.1381,-9.87314 2.13809,-9.87315 0.56675,-10.62685 0.56675,-10.62686 -3.08346,-40 -3.08345,-40 -0.61026,-5.44651 -0.61027,-5.44651 -3.43141,-3.43141 -3.43142,-3.43142 -4.12466,0.55324 -4.12465,0.55323 -2.38222,2.38221 -2.38221,2.38222 -5.37169,20.94247 -5.3717,20.94248 -3.73664,10 -3.73665,10 -3.87533,8.42982 -3.875337,8.42983 -2.45357,3.21679 -2.45357,3.2168 -5.224306,2.60338 L 83.607311,392 H 79.669675 75.732039 L 71.61602,390.77768 67.5,389.55535 62.972323,385.02768 58.444647,380.5 57.222323,376.38398 56,372.26796 v -56.35895 -56.35895 l -7.56261,7.47497 -7.56261,7.47497 -4.49685,6.72392 -4.49685,6.72393 -2.349901,5.78314 -2.349901,5.78314 -1.590639,7.70078 L 24,314.91568 v 5.95211 5.9521 l 7.018552,42.34006 7.018552,42.34005 1.980594,7.72021 1.980594,7.72021 5.642518,14.52979 L 53.283328,456 H 96.021975 138.76062 Z M 346.5,421.34158 l 4,-2.15841 2.69105,-2.84159 2.69105,-2.84158 2.03699,-4.5 2.03699,-4.5 0.022,-68.47654 0.022,-68.47654 -7.95295,7.90631 -7.95296,7.90631 -0.29704,25.24934 -0.29705,25.24934 -2.06179,2.7591 -2.06179,2.7591 -2.76118,2.06179 -2.76119,2.06179 -84.70982,0.26644 -84.70983,0.26643 1.84012,22.73357 1.84013,22.73356 -0.59027,13.5 -0.59027,13.5 -0.57893,3.77117 -0.57894,3.77117 88.36188,-0.27117 L 342.5,423.5 Z m -156.49461,-14.97572 -4.49461,-1.60637 -4.29531,-2.95525 -4.29531,-2.95525 -3.40521,-5.17449 -3.40521,-5.1745 -1.18142,-4.7811 -1.18141,-4.78111 0.51658,-4.58313 0.51659,-4.58313 1.92175,-2.57398 1.92175,-2.57397 2.76154,-2.06179 2.76154,-2.06179 H 216 253.85334 l 2.76154,2.06179 2.76154,2.06179 2.06179,2.76514 2.06179,2.76513 -0.0514,7.17308 -0.0514,7.17307 -2.42478,5 -2.42478,5 -4.02386,4.02386 -4.02386,4.02386 -5,2.47614 -5,2.47614 -23,0.23612 -23,0.23612 z m 48.64993,-16.00659 3.45757,-1.64072 2.43526,-3.19279 2.43525,-3.19278 0.6333,-3.16649 L 248.25,376 H 216 183.75 l 0.6333,3.16649 0.6333,3.16649 2.42132,3.17452 2.42133,3.17453 3.32038,1.63621 3.32037,1.63622 19.34887,0.0228 19.34887,0.0228 z m -156.482152,-15.45195 2.041685,-1.09267 3.762046,-8.15733 3.762047,-8.15732 2.62257,-7.28754 2.62257,-7.28754 -3.479689,-3.0552 -3.479688,-3.05521 -1.058356,-3.65725 L 87.907998,329.5 88.203999,205.82315 88.5,82.146301 90.561789,79.384939 92.623577,76.623577 95.385119,74.561789 98.146661,72.5 H 216 333.85334 l 2.76154,2.061789 2.76154,2.061788 2.06179,2.759101 2.06179,2.759101 0.29794,25.400661 0.29793,25.40065 3.79414,-2.74845 3.79413,-2.74846 4.15793,-1.87496 L 360,123.69625 359.97804,83.598126 359.95608,43.5 357.91909,39 355.8821,34.5 353.19105,31.623522 350.5,28.747044 l -5,-2.363753 -5,-2.363753 -123.88398,-0.0098 L 92.732039,24 88.61602,25.216116 84.5,26.432233 79.466116,31.466116 74.432233,36.5 73.216116,40.61602 72,44.732039 V 208.05157 371.3711 l 2.174314,2.31445 L 76.348628,376 h 1.891427 1.891428 z M 184,48 v -8 h 32 32 v 8 8 H 216 184 Z M 298.45455,53.545455 296,51.090909 V 48 44.909091 L 298.45455,42.454545 300.90909,40 H 304 h 3.09091 l 2.45454,2.454545 L 312,44.909091 V 48 51.090909 L 309.54545,53.545455 307.09091,56 H 304 300.90909 Z m 32,0 L 328,51.090909 V 48 44.909091 L 330.45455,42.454545 332.90909,40 H 336 h 3.09091 l 2.45454,2.454545 L 344,44.909091 V 48 51.090909 L 341.54545,53.545455 339.09091,56 H 336 332.90909 Z M 328,312.5 V 297 h -0.48777 -0.48777 l -17.76223,7.23918 -17.76223,7.23918 -6.57697,0.008 -6.57698,0.008 -4.16449,-2.75593 -4.16448,-2.75593 -2.56959,-3.8829 -2.56959,-3.88291 -0.56227,-5.44792 -0.56228,-5.44792 8.67994,-21.91063 8.67994,-21.91064 9.09653,-9.17257 9.09652,-9.17257 -4.00904,-4.55452 -4.00905,-4.55451 -1.77273,-5.63598 -1.77273,-5.63598 0.52142,-5.75035 0.52142,-5.75035 2.15489,-4.87147 2.15488,-4.87146 L 310.54767,165.9795 328,148.4296 V 118.2148 88 H 216 104 l 0.0907,114.75 0.0907,114.75 2.80375,-10.79136 2.80374,-10.79136 2.56616,-3.87773 2.56616,-3.87773 3.35803,-2.56129 3.35802,-2.56129 4.30706,-1.51962 L 130.25145,280 h 4.19614 4.19613 l 4.62267,1.5751 4.62267,1.5751 4.41612,3.88723 4.41612,3.88722 2.1267,4.94365 2.1267,4.94365 1.0041,11.34402 1.00409,11.34403 0.009,2.25 L 163,328 H 245.5 328 Z M 168,304 v -8 h 44 44 v 8 8 h -44 -44 z m 0,-32 v -8 h 44 44 v 8 8 h -44 -44 z m 0,-32 v -8 h 52 52 v 8 8 h -52 -52 z m 0,-32 v -8 h 36 36 v 8 8 h -36 -36 z m 88,0 v -8 h 8 8 v 8 8 h -8 -8 z m -88,-32 v -8 h 52 52 v 8 8 h -52 -52 z m -48,-48 v -24 h 96 96 v 24 24 h -96 -96 z m 176,0 v -8 h -80 -80 v 8 8 h 80 80 z m 3.5,162.84108 13,-5.16637 0.44986,-0.37054 0.44986,-0.37055 L 302.46691,273.96681 291.53411,263 l -0.51706,0.008 -0.51705,0.008 -5.25,13.25888 -5.25,13.25887 v 1.67638 1.67638 l 2.22251,1.55671 2.2225,1.5567 1.0275,0.004 1.02749,0.004 z m 47.26665,-33.10748 18.24638,-18.26639 -14.22789,-8.48361 -14.22789,-8.4836 -3.44307,-2.33146 -3.44307,-2.33146 -15.0768,15.07681 -15.07681,15.0768 13.97786,14.00466 L 327.47321,276 h 0.52353 0.52353 z M 464.47794,239.32785 488,231.56935 V 207.78468 184 h -1.32954 -1.32954 L 473.42046,175.04137 461.5,166.08274 444.7351,182.79137 427.9702,199.5 437.9851,199.78498 448,200.06997 V 208.03498 216 h -21.46415 -21.46416 l -14.96409,-11.94679 -14.96409,-11.9468 -5.05495,-2.56154 -5.05496,-2.56153 -5.7269,-1.49167 -5.7269,-1.49167 -4.0399,0.004 -4.0399,0.004 -3.20145,1.95204 -3.20145,1.95203 -1.54855,2.99457 -1.54855,2.99456 0.004,2.79966 0.004,2.79966 1.91962,3.14814 1.91962,3.14814 28.5715,17.15462 28.5715,17.15461 5.43029,2.40153 5.43028,2.40153 6.82486,1.53319 6.82485,1.53318 9.72794,-0.44429 9.72794,-0.44429 z m -148.57128,-30.73274 4.32307,-4.40489 0.15011,-7.84511 0.1501,-7.84511 2.93898,-5.33272 2.93898,-5.33272 2.92958,-2.46508 2.92958,-2.46508 4.11647,-2.12486 4.11647,-2.12486 8.13069,-0.44648 8.13068,-0.44648 15.86932,-15.98669 15.86931,-15.98669 -9.07266,0.47017 -9.07267,0.47017 -6.42733,2.8209 -6.42734,2.8209 -25.73633,25.50834 -25.73634,25.50833 -1.12694,3.41467 -1.12694,3.41467 0.55194,3.40126 0.55195,3.40125 2.12943,2.9905 2.12942,2.9905 h 1.2237 1.22369 z M 446.68134,157.75 485.8286,118.5 l 1.08013,-4 1.08012,-4 -0.0164,-3 -0.0164,-3 -1.85194,-4 -1.85194,-4 -2.8761,-2.696952 L 478.5,91.106096 474.78212,89.553048 471.06424,88 l -3.78212,0.02196 -3.78212,0.02196 -4,1.875815 -4,1.875816 -40.7428,40.852229 -40.74281,40.85222 5.47363,2.86256 5.47364,2.86255 10.76917,8.81301 10.76917,8.81302 0.51704,0.0744 0.51704,0.0744 z"
       id="path1" />
  </g>
</svg>
