<?xml version="1.0" encoding="UTF-8" standalone="no"?>
<!-- Created with Inkscape (http://www.inkscape.org/) -->

<svg
   version="1.1"
   id="svg1"
   width="512"
   height="512"
   viewBox="0 0 512 512"
   sodipodi:docname="maps.png"
   xmlns:inkscape="http://www.inkscape.org/namespaces/inkscape"
   xmlns:sodipodi="http://sodipodi.sourceforge.net/DTD/sodipodi-0.dtd"
   xmlns:xlink="http://www.w3.org/1999/xlink"
   xmlns="http://www.w3.org/2000/svg"
   xmlns:svg="http://www.w3.org/2000/svg">
  <defs
     id="defs1" />
  <sodipodi:namedview
     id="namedview1"
     pagecolor="#505050"
     bordercolor="#fff"
     borderopacity="1"
     inkscape:showpageshadow="0"
     inkscape:pageopacity="0"
     inkscape:pagecheckerboard="1"
     inkscape:deskcolor="#505050"
     showgrid="false" />
  <g
     inkscape:groupmode="layer"
     inkscape:label="Image"
     id="g1">
    <image
       width="512"
       height="512"
       preserveAspectRatio="none"
       id="image1"
       style="display:none" />
    <path
       style="fill:#ebf2f1"
       d="m 183.45455,502.54545 c -2.39266,-2.39265 -2.45441,-2.8402 -2.44897,-17.75 0.006,-17.38492 0.6658,-20.7346 5.15312,-26.1746 5.03005,-6.09794 9.41586,-7.57317 22.5913,-7.59889 C 220,451 220,451 220,430.01926 c 0,-20.98073 0,-20.98073 -97.25,-21.25 C 25.5,408.5 25.5,408.5 20,405.90567 13.036532,402.62103 6.845337,396.4212 3.2813062,389.16366 0.5,383.5 0.5,383.5 0.5,208 0.5,32.5 0.5,32.5 3.264143,26.873613 6.5239503,20.238305 14.169114,12.734662 20.782772,9.679273 25.5,7.5 25.5,7.5 256,7.5 c 230.5,0 230.5,0 236.14796,2.647962 7.1925,3.372092 13.33199,9.511582 16.70408,16.704076 C 511.5,32.5 511.5,32.5 511.5,208 c 0,175.5 0,175.5 -2.64796,181.14796 -3.37209,7.1925 -9.51158,13.33199 -16.70408,16.70408 C 486.5,408.5 486.5,408.5 389.22977,408.76928 c -97.27023,0.26927 -97.27023,0.26927 -97,21 C 292.5,450.5 292.5,450.5 304.5,451 c 12.90714,0.5378 15.74997,1.45268 20.69695,6.66072 5.02573,5.29095 5.80305,8.82089 5.80305,26.35262 0,15.73668 -0.052,16.12961 -2.45455,18.53211 C 326.09091,505 326.09091,505 256,505 c -70.09091,0 -70.09091,0 -72.54545,-2.45455 z M 315,479.93426 C 315,465.46334 321.94579,467 256.53624,467 c -49.93338,0 -56.57339,0.18001 -57.96481,1.57143 -1.20635,1.20635 -1.57143,3.7619 -1.57143,11 C 197,489 197,489 256,489 c 59,0 59,0 59,-9.06574 z M 276,430 c 0,-21 0,-21 -20,-21 -20,0 -20,0 -20,21 0,21 0,21 20,21 20,0 20,0 20,-21 z m 212.43674,-40.38391 c 5.88921,-4.49198 7.51544,-9.2077 7.5413,-21.86814 C 496,356.99589 496,356.99589 256.25,357.24795 16.5,357.5 16.5,357.5 16.188802,367 c -0.470355,14.35862 2.095992,20.40472 10.232599,24.10717 3.939608,1.79266 11.816995,1.84802 231.156499,1.62437 C 484.65579,392.5 484.65579,392.5 488.43674,389.61609 Z M 496,189.46788 C 496,63.620221 495.76364,36.370083 494.64896,33.702258 492.85268,29.40316 486.83292,24.239771 482.77138,23.514379 480.97212,23.193031 377.76495,23.058335 253.4221,23.215055 27.344204,23.5 27.344204,23.5 23.662871,26.307932 21.638138,27.852295 19.085692,30.871867 17.990769,33.018094 16.028945,36.863587 16,39.128501 16,188.7935 16,272.32374 16.3,340.96667 16.666667,341.33333 17.033333,341.7 125.03333,342 256.66667,342 H 496 Z M 240.74153,308.83062 C 212.94915,305.97482 188.84624,293.98363 180.45756,278.83936 177.87222,274.17198 177.5,272.49317 177.5,265.5 c 0,-6.99317 0.37222,-8.67198 2.95756,-13.33936 4.01067,-7.24055 11.78025,-14.08031 21.85394,-19.23859 8.38786,-4.29503 8.38786,-4.29503 3.9884,-10.07994 -16.91326,-22.23948 -28.61709,-48.59784 -32.01745,-72.10698 -3.78506,-26.16876 3.63995,-50.534 21.16698,-69.45962 39.81002,-42.986728 111.55573,-31.43817 135.95622,21.88421 5.55714,12.14403 7.03483,19.53642 6.96431,34.84028 -0.0885,19.21103 -3.51316,32.90933 -13.37522,53.5 -4.58798,9.57909 -14.05304,24.9315 -20.12561,32.6439 -1.57802,2.00415 -2.86913,3.89387 -2.86913,4.19938 0,0.30551 3.64319,2.45087 8.09597,4.76746 C 326.12111,241.44794 335,252.99549 335,265.5 c 0,21.78271 -26.7273,39.51369 -65.42368,43.40228 -12.24893,1.23089 -16.25541,1.22094 -28.83479,-0.0717 z M 269.5,292.97269 c 19.32591,-2.17073 35.70291,-8.33349 43.88275,-16.51334 6.45627,-6.45627 7.28791,-12.90001 2.52769,-19.58513 -2.60209,-3.65429 -12.74927,-10.19612 -20.0511,-12.92682 -5.88317,-2.20016 -5.88317,-2.20016 -14.18284,5.76786 C 271.19937,259.77372 259.61595,268 255.92977,268 c -3.41243,0 -16.45888,-9.45387 -26.68592,-19.33745 -7.25614,-7.01247 -7.25614,-7.01247 -13.92907,-4.2721 -9.63246,3.95576 -16.96107,9.14984 -19.83905,14.06076 -4.21444,7.19139 -3.00754,12.03856 4.78624,19.22262 12.88027,11.87261 42.15416,18.34098 69.23803,15.29886 z M 259.61715,247.75 c 18.80538,-14.07726 38.72727,-38.48644 50.32434,-61.6596 15.91287,-31.79697 17.25086,-60.36894 3.8793,-82.8403 -4.5699,-7.679862 -16.02172,-18.987236 -23.82713,-23.526575 -16.6865,-9.704262 -37.72089,-11.712944 -56.01887,-5.349533 -9.85719,3.42799 -17.11454,7.980615 -24.95263,15.653081 -26.88148,26.313467 -26.46145,65.828437 1.17336,110.384927 6.57073,10.5942 16.19581,22.82632 25.08435,31.87868 7.38246,7.51852 19.2239,17.70932 20.57777,17.70932 0.41459,0 2.10637,-1.0125 3.75951,-2.25 z m -15.33111,-70.14444 c -6.76893,-2.20591 -12.65778,-6.13773 -18.08233,-12.07305 -19.16048,-20.96461 -9.80599,-55.48787 17.46046,-64.43882 19.32846,-6.345083 40.42334,2.96571 49.13403,21.68664 2.34443,5.03862 2.66372,6.97242 2.68156,16.2407 0.019,9.89993 -0.17439,10.91637 -3.27663,17.21792 -4.17661,8.4839 -10.45345,14.77436 -18.88347,18.92445 -5.76653,2.83885 -7.78503,3.29298 -15.71792,3.53629 -5.74204,0.17611 -10.65723,-0.22776 -13.3157,-1.09413 z m 19.85552,-15.76612 c 5.62492,-1.68527 11.2272,-6.9446 13.82164,-12.97554 4.80638,-11.17272 0.82422,-24.00938 -9.41122,-30.33746 -4.33353,-2.67922 -5.7646,-3.02416 -12.47356,-3.00659 -8.42463,0.0221 -11.77218,1.32775 -17.12319,6.67876 -4.47436,4.47436 -6.90711,10.29321 -6.93327,16.58351 -0.0697,16.76698 15.59125,28.00934 32.1196,23.05732 z"
       id="path1" />
  </g>
</svg>
