<?xml version="1.0" encoding="UTF-8" standalone="no"?>
<!-- Created with Inkscape (http://www.inkscape.org/) -->

<svg
   version="1.1"
   id="svg1"
   width="638.33765"
   height="638.33765"
   viewBox="0 0 638.33765 638.33765"
   sodipodi:docname="report.png"
   xmlns:inkscape="http://www.inkscape.org/namespaces/inkscape"
   xmlns:sodipodi="http://sodipodi.sourceforge.net/DTD/sodipodi-0.dtd"
   xmlns="http://www.w3.org/2000/svg"
   xmlns:svg="http://www.w3.org/2000/svg">
  <defs
     id="defs1" />
  <sodipodi:namedview
     id="namedview1"
     pagecolor="#505050"
     bordercolor="#fff"
     borderopacity="1"
     inkscape:showpageshadow="0"
     inkscape:pageopacity="0"
     inkscape:pagecheckerboard="1"
     inkscape:deskcolor="#505050" />
  <g
     inkscape:groupmode="layer"
     inkscape:label="Image"
     id="g1">
    <path
       style="fill:#ebf2f1"
       d="m 167.19999,636.98915 c -14.0074,-2.75089 -28.61769,-13.19091 -35.37194,-25.27559 -6.50199,-11.63332 -6.43416,-11.03866 -7.1243,-62.45538 l -0.65181,-48.55998 -10.59487,-5.47748 C 32.711715,453.47587 -10.4775,362.14657 8.7574741,273.81957 17.926295,231.71635 40.983576,192.27115 72.422533,164.90468 84.185838,154.66515 103.99561,141.38867 115.63636,135.94283 l 9.03896,-4.22865 V 88.524933 c 0,-46.665805 0.34636,-49.722941 6.97763,-61.587574 C 138.82867,14.098606 152.97997,4.1543537 168.17557,1.2725673 172.52493,0.44772805 232.17432,0 337.71568,0 h 162.82988 l 67.02591,67.025913 67.02592,67.025917 V 363.6421 c 0,218.65399 -0.10825,229.93704 -2.27251,236.87018 -5.93079,18.99912 -21.51238,32.81386 -41.22774,36.5528 -8.33042,1.57983 -415.83778,1.50684 -423.89715,-0.0759 z M 596.8885,612.88981 c 7.13251,-3.95194 12.30222,-9.82865 14.80463,-16.82931 1.27859,-3.57691 1.611,-48.9948 1.65473,-226.08648 l 0.0547,-221.61039 -51.42857,-0.0122 c -51.42285,-0.0122 -51.42927,-0.0125 -57.75068,-2.95605 -3.47717,-1.61913 -8.09008,-5.08872 -10.25093,-7.7102 -7.54764,-9.1566 -7.73865,-10.79149 -7.73865,-66.237621 V 21.157534 l -158.64934,0.330324 -158.64935,0.330323 -6.55085,3.629655 c -7.13251,3.951936 -12.30222,9.82865 -14.80464,16.82931 -1.16492,3.258949 -1.61488,14.86633 -1.65472,42.686407 l -0.0547,38.210307 9.03896,-2.31468 c 34.04573,-8.71839 71.27806,-8.50651 105.03896,0.59775 71.99831,19.4157 128.78962,79.71739 143.94196,152.83927 9.07933,43.81485 3.21688,91.42171 -15.96801,129.67053 l -5.93142,11.82547 50.70766,51.11688 c 46.16805,46.54064 51.08537,51.89584 54.92678,59.81794 4.02346,8.29753 4.21748,9.33829 4.18365,22.44156 -0.0484,18.7459 -2.68059,25.42043 -14.80727,37.54711 -12.12668,12.12667 -18.8012,14.75887 -37.54711,14.80727 -13.10327,0.0338 -14.14402,-0.1602 -22.44156,-4.18366 -7.93747,-3.84886 -13.18692,-8.68143 -59.81793,-55.06755 l -51.11689,-50.84843 -6.09692,3.53692 c -15.00568,8.70503 -43.77315,17.9403 -66.21476,21.25704 -22.36198,3.30497 -55.35576,1.24589 -78.85714,-4.92133 l -9.03896,-2.372 v 40.79644 c 0,33.73816 0.33742,41.78672 1.95028,46.5202 2.99164,8.77998 11.66239,16.65858 21.72996,19.74473 1.71872,0.52686 97.09897,0.86258 211.95611,0.74604 l 208.83117,-0.21189 z m -83.18849,-18.53663 c -6.81017,-3.44599 -7.96461,-11.77686 -2.35603,-17.00204 2.41654,-2.25135 4.78421,-2.49022 28.14721,-2.8397 l 25.50872,-0.38158 3.00653,-3.4981 c 2.94943,-3.43165 3.00653,-3.94826 3.00653,-27.19884 0,-23.93097 0.54174,-27.33599 4.87898,-30.66601 3.40817,-2.61671 9.89195,-1.90154 13.25562,1.46212 3.05836,3.05836 3.0602,3.07628 3.04803,29.61039 -0.0116,25.18862 -0.16137,26.86986 -2.92125,32.78394 -3.82881,8.20469 -11.45413,14.94727 -19.66013,17.38419 -8.4368,2.50546 -51.12435,2.76933 -55.91421,0.34563 z m -55.1575,-128.52042 c -6.73728,-5.11864 -4.60872,-15.87822 3.59165,-18.1553 2.97816,-0.82698 22.26556,-1.32852 51.25652,-1.33286 49.42688,-0.007 53.2592,0.40389 56.27519,6.03931 2.20977,4.129 1.54329,8.83193 -1.71311,12.08833 l -3.06021,3.06022 -52.10862,-0.0397 c -40.77519,-0.031 -52.57249,-0.39208 -54.24142,-1.66004 z M 415.1368,400.79707 c -3.89869,-4.14997 -3.98221,-10.84346 -0.1827,-14.64297 l 2.77749,-2.77749 h 73.63176 73.63175 l 3.00894,3.4981 c 3.96846,4.61361 3.86709,9.64138 -0.27796,13.78644 l -3.2869,3.28689 h -73.1711 -73.1711 z m 13.12293,-61.87311 c -3.89057,-2.12798 -5.61385,-4.93816 -5.57074,-9.08434 0.0447,-4.29726 1.8021,-7.09086 5.80046,-9.2204 1.9721,-1.05034 20.99834,-1.4504 68.97902,-1.4504 h 66.25579 l 3.64436,3.64436 c 5.3257,5.3257 4.26765,13.23659 -2.16218,16.16621 -4.22253,1.92391 -133.4235,1.87162 -136.94671,-0.0554 z m 0.73648,-63.50381 c -6.88673,-2.75355 -8.59408,-11.4681 -3.28666,-16.77553 l 3.06022,-3.06021 h 67.76963 c 66.35465,0 67.82628,0.0528 70.48313,2.52801 5.68121,5.29285 4.57061,13.60498 -2.28101,17.07194 -3.82764,1.93681 -130.93878,2.1576 -135.74531,0.23579 z m -32.22649,-64.06967 c -6.99181,-3.0704 -8.26626,-11.49279 -2.54552,-16.82247 C 396.89436,192.04037 398.27894,192 480.91512,192 h 83.97743 l 3.06021,3.06021 c 3.963,3.96299 3.98325,9.44173 0.0518,14.01312 l -3.00839,3.49809 -82.08251,0.28131 c -68.91479,0.23617 -82.73405,-0.005 -86.14395,-1.50225 z m -56.18877,-65.8724 c -3.86274,-4.1117 -3.63341,-10.77365 0.50477,-14.66335 l 3.21561,-3.02253 42.86744,-0.37235 c 48.74911,-0.42344 52.11797,-0.0177 54.88716,6.60988 1.95455,4.67789 1.40939,7.34651 -2.35515,11.52871 l -2.52505,2.80519 H 390.23376 343.29179 Z M 192.25018,82.251206 c -5.68121,-5.292851 -4.57062,-13.604973 2.28101,-17.071939 4.23824,-2.144578 235.65063,-2.31627 241.7805,-0.179384 4.98868,1.739063 8.13811,8.049979 6.35621,12.736744 -2.83023,7.444062 4.42559,7.042592 -127.28166,7.042592 -119.24715,0 -120.44904,-0.02468 -123.13606,-2.528013 z M 452.20593,576.18645 c 6.39348,-3.26172 11.79335,-8.63132 14.8311,-14.74798 3.25365,-6.55137 3.23725,-20.40468 -0.0322,-27.20472 -1.52651,-3.17496 -19.534,-22.20152 -49.55898,-52.36363 l -47.16125,-47.37662 -3.42802,4.33943 c -10.55315,13.35893 -24.63369,27.43113 -37.73794,37.71559 l -4.33944,3.40567 44.88312,44.93547 c 24.68571,24.71451 46.95783,46.38089 49.49359,48.14752 10.33701,7.20163 22.7822,8.38751 33.05001,3.14927 z M 236.88311,494.20237 c 90.71675,-15.24259 156.84236,-99.56198 149.54814,-190.69475 -6.8933,-86.12361 -68.57602,-152.80212 -153.90516,-166.37018 -12.5044,-1.98831 -40.41488,-1.73254 -54.25521,0.49718 -93.713679,15.09759 -159.550173,98.59684 -151.981289,192.75517 2.46953,30.72142 12.054524,58.83456 28.762201,84.36061 30.262495,46.23513 79.019508,75.70584 134.718838,81.42952 12.51303,1.28584 32.74445,0.43662 47.11248,-1.97755 z m -58.69498,-21.1241 C 116.25398,461.86284 67.799493,416.44784 51.517077,354.35311 47.19211,337.85939 46.060659,306.62253 49.181395,289.87012 c 6.618079,-35.52647 20.126002,-61.45076 44.847243,-86.07044 19.276412,-19.19722 38.670702,-31.26514 62.776872,-39.06233 17.90727,-5.79214 26.58871,-7.02307 49.53215,-7.02307 29.50455,0 44.79703,3.40227 69.81818,15.53313 44.37437,21.51377 75.60788,61.86709 86.34752,111.55995 3.13762,14.51794 3.04469,49.91942 -0.1671,63.66016 -7.34197,31.41051 -20.38653,56.01622 -41.17992,77.67689 -23.44482,24.4227 -54.76885,41.2749 -87.2472,46.93865 -13.6324,2.37729 -42.58034,2.37481 -55.72101,-0.005 z m 56.20147,-21.66132 c 24.74427,-4.93943 48.95131,-17.94719 68.25103,-36.67499 17.89404,-17.36378 30.99528,-39.87886 37.27485,-64.05852 4.28798,-16.51102 5.31914,-40.99754 2.42513,-57.58872 C 331.05712,228.4071 278.09712,181.5144 213.0744,178.63771 c -31.18343,-1.37959 -58.6818,6.22785 -83.81479,23.18741 -38.390726,25.9058 -60.688183,68.00977 -60.688183,114.59663 0,37.06134 12.632819,68.38086 38.407283,95.22005 32.96813,34.33002 80.44323,49.1508 127.41089,39.77515 z m -71.95655,-59.24924 c -6.29981,-2.79283 -7.56752,-11.13584 -2.51981,-16.5833 2.59556,-2.80113 2.65962,-2.8052 44.20777,-2.8052 h 41.60844 l 3.05735,3.29894 c 3.89145,4.19894 3.90989,9.28466 0.0499,13.77439 l -3.00741,3.4981 -39.69389,0.29706 c -32.14313,0.24055 -40.45641,-0.041 -43.7024,-1.47999 z m -44.32044,-64.5833 c -5.15689,-3.91599 -4.92754,-14.32967 0.37812,-17.16918 1.42287,-0.7615 33.92344,-1.22043 86.42772,-1.22043 h 84.14732 l 2.58399,3.28502 c 3.29207,4.18518 3.29207,9.19282 0,13.37801 l -2.58399,3.28502 h -84.45044 c -65.63463,0 -84.90769,-0.34723 -86.50272,-1.55844 z m 41.60992,-64.99584 c -3.09965,-3.29942 -3.75792,-8.80385 -1.5469,-12.93517 2.61519,-4.88654 8.43444,-5.4854 49.20666,-5.06388 l 38.44722,0.39749 3.00732,3.49809 c 3.85986,4.48977 3.84139,9.57548 -0.05,13.7744 l -3.05735,3.29893 H 204.12101 162.51257 Z M 597.19479,126.85065 c 0,-0.175 -20.1974,-20.50974 -44.88312,-45.188314 L 507.42856,36.792208 V 78.920305 121.0484 l 3.06021,3.06022 3.06021,3.06021 h 41.82291 c 23.00259,0 41.8229,-0.14318 41.8229,-0.31818 z"
       id="path1" />
  </g>
</svg>
